<svg id="Layer_1" data-name="Layer 1" xmlns="http://www.w3.org/2000/svg" width="44.2" height="37.6" viewBox="0 0 44.2 37.6"><title>emptyheart</title><path d="M21.7,4.3C24.9,2.7,27.4.8,30.2.2,39-1.5,46.3,6.6,43.6,15.5a21,21,0,0,1-5.3,8.8A141.8,141.8,0,0,1,24.2,37a4.3,4.3,0,0,1-4.1.1A170.1,170.1,0,0,1,6,24.4,28.3,28.3,0,0,1,.5,15.1C-1.1,10.3,1.2,4.9,5,2.2s9.5-2.9,14,.1Zm.4,29.3c4.4-3.8,8.4-7.1,12-10.7a26.8,26.8,0,0,0,5.3-7.2c1.7-3.8,1.1-7.6-2.5-10.2s-7.2-1.8-10.5,1l-4.3,3.9C20.2,8.7,18.8,7.2,17.2,6s-6.4-2.8-9.7-.6-4.1,5.7-3,9.3a17.6,17.6,0,0,0,4.2,6.7C12.9,25.6,17.5,29.4,22.1,33.6Z" fill="#ce6957"/></svg>