<svg xmlns="http://www.w3.org/2000/svg"><symbol id="arrow" viewBox="0 0 177.5 296.6"><path fill="#ce6957" d="M11.5 296.6a11.2 11.2 0 0 1-8.1-3.4 11.5 11.5 0 0 1 0-16.3l140.1-140.1L4.1 20.3A11.5 11.5 0 0 1 18.9 2.7l158.6 132.6L19.6 293.2a11.6 11.6 0 0 1-8.1 3.4z"/></symbol><symbol id="search" viewBox="0 0 264.1 270.3"><g id="Ellipse_16"><circle cx="90.1" cy="90.1" r="89.2" fill="none"/><path fill="#f1b7a4" d="M90.1 180.2a90.1 90.1 0 1 1 90.1-90.1 90.2 90.2 0 0 1-90.1 90.1zm0-140.2a50.1 50.1 0 1 0 50.1 50.1A50.2 50.2 0 0 0 90.1 40z"/></g><path fill="#f1b7a4" d="M244.1 270.3a19.7 19.7 0 0 1-14.5-6.3L131 159.3a20 20 0 0 1 29.2-27.4l98.5 104.7a19.9 19.9 0 0 1-14.6 33.7z"/></symbol><symbol id="heart" viewBox="0 0 80.1 71.9"><path fill="#ce6957" d="M40 8.1C52.8-2.8 66.1-2.3 75 8.8c6 7.4 6.6 15.8 2.3 23.9a80 80 0 0 1-11.9 17c-6.8 7.2-14.6 13.6-21.9 20.4-2.3 2.1-4.6 2.7-7 .4-8.9-8.7-18.1-17.2-26.6-26.3-3.5-3.6-6-8.4-7.9-13.1-4.4-10.5-1.3-20.5 7.6-27s19.1-5.5 27.6 1.5c.9.8 1.8 1.5 2.8 2.5z"/></symbol><symbol id="heart" viewBox="0 0 80.1 71.9"><path fill="#ce6957" d="M40 8.1C52.8-2.8 66.1-2.3 75 8.8c6 7.4 6.6 15.8 2.3 23.9a80 80 0 0 1-11.9 17c-6.8 7.2-14.6 13.6-21.9 20.4-2.3 2.1-4.6 2.7-7 .4-8.9-8.7-18.1-17.2-26.6-26.3-3.5-3.6-6-8.4-7.9-13.1-4.4-10.5-1.3-20.5 7.6-27s19.1-5.5 27.6 1.5c.9.8 1.8 1.5 2.8 2.5z"/></symbol><symbol id="emptyheart" viewBox="0 0 44.2 37.6"><path fill="#ce6957" d="M21.7 4.3C24.9 2.7 27.4.8 30.2.2 39-1.5 46.3 6.6 43.6 15.5a21 21 0 0 1-5.3 8.8A141.8 141.8 0 0 1 24.2 37a4.3 4.3 0 0 1-4.1.1A170.1 170.1 0 0 1 6 24.4a28.3 28.3 0 0 1-5.5-9.3C-1.1 10.3 1.2 4.9 5 2.2s9.5-2.9 14 .1zm.4 29.3c4.4-3.8 8.4-7.1 12-10.7a26.8 26.8 0 0 0 5.3-7.2c1.7-3.8 1.1-7.6-2.5-10.2s-7.2-1.8-10.5 1l-4.3 3.9c-1.9-1.7-3.3-3.2-4.9-4.4s-6.4-2.8-9.7-.6-4.1 5.7-3 9.3a17.6 17.6 0 0 0 4.2 6.7c4.2 4.2 8.8 8 13.4 12.2z"/></symbol><symbol id="arrow" viewBox="0 0 177.5 296.6"><path fill="#ce6957" d="M11.5 296.6a11.2 11.2 0 0 1-8.1-3.4 11.5 11.5 0 0 1 0-16.3l140.1-140.1L4.1 20.3A11.5 11.5 0 0 1 18.9 2.7l158.6 132.6L19.6 293.2a11.6 11.6 0 0 1-8.1 3.4z"/></symbol><symbol id="search" viewBox="0 0 264.1 270.3"><g id="Ellipse_16"><circle cx="90.1" cy="90.1" r="89.2" fill="none"/><path fill="#f1b7a4" d="M90.1 180.2a90.1 90.1 0 1 1 90.1-90.1 90.2 90.2 0 0 1-90.1 90.1zm0-140.2a50.1 50.1 0 1 0 50.1 50.1A50.2 50.2 0 0 0 90.1 40z"/></g><path fill="#f1b7a4" d="M244.1 270.3a19.7 19.7 0 0 1-14.5-6.3L131 159.3a20 20 0 0 1 29.2-27.4l98.5 104.7a19.9 19.9 0 0 1-14.6 33.7z"/></symbol><symbol id="heart" viewBox="0 0 80.1 71.9"><path fill="#ce6957" d="M40 8.1C52.8-2.8 66.1-2.3 75 8.8c6 7.4 6.6 15.8 2.3 23.9a80 80 0 0 1-11.9 17c-6.8 7.2-14.6 13.6-21.9 20.4-2.3 2.1-4.6 2.7-7 .4-8.9-8.7-18.1-17.2-26.6-26.3-3.5-3.6-6-8.4-7.9-13.1-4.4-10.5-1.3-20.5 7.6-27s19.1-5.5 27.6 1.5c.9.8 1.8 1.5 2.8 2.5z"/></symbol></svg>