<svg xmlns="http://www.w3.org/2000/svg"><symbol id="arrow" viewBox="0 0 177.5 296.6"><path fill="#ce6957" d="M11.5 296.6a11.2 11.2 0 0 1-8.1-3.4 11.5 11.5 0 0 1 0-16.3l140.1-140.1L4.1 20.3A11.5 11.5 0 0 1 18.9 2.7l158.6 132.6L19.6 293.2a11.6 11.6 0 0 1-8.1 3.4z"/></symbol><symbol id="search" viewBox="0 0 264.1 270.3"><g id="Ellipse_16"><circle cx="90.1" cy="90.1" r="89.2" fill="none"/><path fill="#f1b7a4" d="M90.1 180.2a90.1 90.1 0 1 1 90.1-90.1 90.2 90.2 0 0 1-90.1 90.1zm0-140.2a50.1 50.1 0 1 0 50.1 50.1A50.2 50.2 0 0 0 90.1 40z"/></g><path fill="#f1b7a4" d="M244.1 270.3a19.7 19.7 0 0 1-14.5-6.3L131 159.3a20 20 0 0 1 29.2-27.4l98.5 104.7a19.9 19.9 0 0 1-14.6 33.7z"/></symbol></svg>