<svg xmlns="http://www.w3.org/2000/svg" id="Layer_1" viewBox="0 0 64 64" width="64" height="64"><style>.st0{fill:#edaa58;stroke:#66242e;stroke-width:2.232;stroke-linecap:round;stroke-linejoin:round}.st1{fill:#fff}.st2,.st3,.st4{stroke:#66242e;stroke-width:2.232}.st2{stroke-linecap:round;stroke-linejoin:round;fill:#fff}.st3,.st4{fill:none;stroke-miterlimit:10}.st4{stroke-linecap:round}</style><g id="Group_32"><path id="Path_1" d="M17.9 18.6v9.6l-10.2 24s-5.5 11.1 4 11.1h35.7s9.3 0 4.3-11.1c-4.1-9.1-10.8-23.9-10.8-23.9v-9.6l-23-.1z" class="st0"/><circle id="Ellipse_7" cx="24.9" cy="45.5" r="1.9" class="st1"/><circle id="Ellipse_8" cx="28.9" cy="53.8" r="1.1" class="st1"/><circle id="Ellipse_9" cx="29.5" cy="37.5" r="3" class="st1"/><path id="Path_2" d="M27.8 5.8c-2.4-3-6.8-3.4-9.8-1-.4.3-.7.6-1 1-5.7 5.9-6.4 18.4-12.3 14.8 0 0 2 5.4 8.6 3-2 2.2-2.4 5.4-1.1 8 2 5.4 7.7 2 7.7 2-1.5.2-2.9-.8-3.3-2.2-.5-2.6 6.3-3.5 6.4-7.6s2.9-5.2 6-5.2 1.6 4.9 5.6 7.5c2.3 1.6 5.3 2.1 8 1.4 0 0-1.7 4 .9 6.3s5.2.1 5.2 2.6c2.3-2.4 3.3-6 2.5-9.4-.7-3.8-3.3-6.9-6.8-8.4 2.2-1.9 3.2-4.8 2.7-7.6-.6-2.8-3.2-4.8-6.1-4.7-.2-3.2-2.9-5.6-6.1-5.5-3.3-.3-6.3 1.8-7.1 5z" class="st2"/><g id="Group_2"><path id="Path_3" d="M41 20.9h11.1s6.9 0 6.9 4.9v11.7s.1 5.1-12.6 3.4" class="st3"/><path id="Path_4" d="M38.9 17s2.8 1.4 2.4 6.7" class="st4"/></g></g></svg>