<svg xmlns="http://www.w3.org/2000/svg" width="328.3" height="87.7" viewBox="0 0 328.3 87.7"><path fill="#edaa57" stroke="#050706" stroke-linecap="round" stroke-linejoin="round" stroke-width="2.5" d="M16.3 21.5v10.9L4.7 59.6s-6.3 12.6 4.6 12.6h40.5s10.6 0 4.8-12.6c-4.7-10.3-12.2-27.2-12.2-27.2V21.5z"/><circle cx="24.2" cy="52" r="2.2" fill="#fff"/><circle cx="28.8" cy="61.4" r="1.3" fill="#fff"/><circle cx="29.4" cy="42.9" r="3.4" fill="#fff"/><g fill="none" stroke="#050706" stroke-miterlimit="10" stroke-width="2.5"><path d="M42.6 24.1h12.6s7.8 0 7.8 5.5v13.2s.1 5.8-14.3 3.9"/><path stroke-linecap="round" d="M40.2 19.6s3.1 1.6 2.7 7.7"/></g><path fill="#fff" d="M117.9 28h5.1l2.4.4a5.4 5.4 0 0 1 1.9.7 9.2 9.2 0 0 1 3 2.9 8.5 8.5 0 0 1 1.2 4.6 8.8 8.8 0 0 1-1.4 4.9 7.4 7.4 0 0 1-3.9 3 8.2 8.2 0 0 1 5 3 8.9 8.9 0 0 1 1.8 5.6 9.9 9.9 0 0 1-.7 3.8 10.3 10.3 0 0 1-2.1 3.3 10.7 10.7 0 0 1-3.4 2.3 11.1 11.1 0 0 1-4.6.9h-17.3V28zm1.3 15.3c2.7 0 4.6-.4 5.8-1.4a4.9 4.9 0 0 0 1.8-4.2 6.1 6.1 0 0 0-.6-3 4 4 0 0 0-1.7-1.7 6.2 6.2 0 0 0-2.4-.8l-2.9-.2h-9.5v11.3zm2.4 16.4a6.9 6.9 0 0 0 4.9-1.7 6.3 6.3 0 0 0 1.8-4.7 5.9 5.9 0 0 0-.7-2.9 4.2 4.2 0 0 0-1.7-1.8 6.9 6.9 0 0 0-2.5-1 13.6 13.6 0 0 0-2.9-.3h-10.8v12.4zm20.7-21.8v5.4h.1a11.1 11.1 0 0 1 3.8-4.6 9.3 9.3 0 0 1 5.7-1.4v4.5a14.2 14.2 0 0 0-4.4.6 7.8 7.8 0 0 0-2.9 2.1 10.1 10.1 0 0 0-1.6 3.3 18.4 18.4 0 0 0-.5 4.4v11.5h-4.2V37.9zM172.4 62a11.3 11.3 0 0 1-7.3 2.2 12.5 12.5 0 0 1-5.3-1 11.1 11.1 0 0 1-3.9-2.8 11.8 11.8 0 0 1-2.3-4.3 18.5 18.5 0 0 1-.8-5.4 15.3 15.3 0 0 1 .9-5.4 10.5 10.5 0 0 1 2.5-4.2 10.4 10.4 0 0 1 3.8-2.8 11.3 11.3 0 0 1 4.9-1 10.1 10.1 0 0 1 5.7 1.4 10.3 10.3 0 0 1 3.6 3.6 14.2 14.2 0 0 1 1.9 4.8 21.5 21.5 0 0 1 .5 4.9h-19.4a10.8 10.8 0 0 0 .4 3.2 5.9 5.9 0 0 0 1.5 2.7 7.9 7.9 0 0 0 2.5 1.9 8.7 8.7 0 0 0 3.7.7 7.6 7.6 0 0 0 4.4-1.2 6.7 6.7 0 0 0 2.3-3.8h4.2a10.6 10.6 0 0 1-3.8 6.5zm-1-16.6a7.3 7.3 0 0 0-1.6-2.3 7.6 7.6 0 0 0-2.3-1.5 7.3 7.3 0 0 0-5.8 0 7.6 7.6 0 0 0-2.3 1.5 9.7 9.7 0 0 0-1.5 2.4 8.2 8.2 0 0 0-.7 2.8h14.9a9.5 9.5 0 0 0-.7-2.9zM202 63.7l-5.2-20.6h-.1l-5.2 20.6h-4.6l-8.3-25.8h4.7l5.8 21.1h.1l5.2-21.1h4.7l5.4 21.1 5.8-21.1h4.4l-8.2 25.8zm20-5.8a3.9 3.9 0 0 0 1.6 1.5 7.3 7.3 0 0 0 2.2.9l2.5.2h2.1a6.6 6.6 0 0 0 2-.6 3.5 3.5 0 0 0 1.5-1.2 2.9 2.9 0 0 0 .6-1.9 2.8 2.8 0 0 0-1.2-2.5 11.1 11.1 0 0 0-3.1-1.4 41.8 41.8 0 0 0-4.1-.9 24.5 24.5 0 0 1-4.1-1.2 11.6 11.6 0 0 1-3.1-2.2 5.7 5.7 0 0 1-1.2-3.9 6.7 6.7 0 0 1 .8-3.3 7.2 7.2 0 0 1 2.3-2.3 9.7 9.7 0 0 1 3.1-1.3 13.2 13.2 0 0 1 3.4-.4 24.1 24.1 0 0 1 4 .3 9.9 9.9 0 0 1 3.3 1.3 6.9 6.9 0 0 1 2.3 2.5 9.3 9.3 0 0 1 1 3.9h-4.3a3.2 3.2 0 0 0-.6-2 3.5 3.5 0 0 0-1.4-1.3 6.4 6.4 0 0 0-1.9-.8l-2-.2-2 .2a4.8 4.8 0 0 0-1.7.5 2.7 2.7 0 0 0-1.3 1 2.1 2.1 0 0 0-.5 1.6 2.4 2.4 0 0 0 .7 1.8 6.7 6.7 0 0 0 2 1.2l2.7.8 3 .7 3.1.8a11.5 11.5 0 0 1 2.7 1.4 6.1 6.1 0 0 1 1.9 2 6.2 6.2 0 0 1 .7 3.1 7.5 7.5 0 0 1-.9 3.9 7.8 7.8 0 0 1-2.6 2.5 9.8 9.8 0 0 1-3.5 1.3 17.2 17.2 0 0 1-3.9.4 17.8 17.8 0 0 1-4.1-.4 10 10 0 0 1-3.5-1.5 7.8 7.8 0 0 1-2.4-2.7 9.9 9.9 0 0 1-1-4.1h4.3a4.5 4.5 0 0 0 .6 2.3zM248.2 28v21.1L260 37.9h5.7l-10.3 9.3 11 16.5H261l-8.8-13.5-4 3.7v9.8H244V28zm21.7 5.2V28h4.2v5.2zm4.2 4.7v25.8h-4.2V37.9zM299 62a11.7 11.7 0 0 1-7.3 2.2 12.7 12.7 0 0 1-5.4-1 10.8 10.8 0 0 1-3.8-2.8 11.8 11.8 0 0 1-2.3-4.3 22.6 22.6 0 0 1-.9-5.4 15.3 15.3 0 0 1 .9-5.4 11.7 11.7 0 0 1 2.5-4.2 11.7 11.7 0 0 1 8.7-3.8 10.1 10.1 0 0 1 5.7 1.4 9.8 9.8 0 0 1 3.7 3.6 16.6 16.6 0 0 1 1.9 4.8 21.1 21.1 0 0 1 .4 4.9h-19.3a10.8 10.8 0 0 0 .4 3.2 6.9 6.9 0 0 0 1.4 2.7 8.3 8.3 0 0 0 2.6 1.9 8 8 0 0 0 3.6.7 7.4 7.4 0 0 0 4.4-1.2 6.2 6.2 0 0 0 2.3-3.8h4.2A10.5 10.5 0 0 1 299 62zm-1.1-16.6a7 7 0 0 0-1.5-2.3 9.1 9.1 0 0 0-2.3-1.5 7.2 7.2 0 0 0-2.9-.6 7.3 7.3 0 0 0-3 .6 9.1 9.1 0 0 0-2.3 1.5 9.7 9.7 0 0 0-1.5 2.4 11.5 11.5 0 0 0-.6 2.8h14.8a9.5 9.5 0 0 0-.7-2.9zm23.1-3.8h-14.6v-3.7h20.1v2.9l-15.8 19.1h16.5v3.8h-21.8v-3.3z" style="isolation:isolate"/><path fill="#fff" stroke="#050706" stroke-linecap="round" stroke-linejoin="round" stroke-width="2.5" d="M27.5 7a7.9 7.9 0 0 0-11.2-1.1L15.2 7c-6.5 6.7-7.3 20.8-14 16.8 0 0 2.3 6.1 9.8 3.4a7.9 7.9 0 0 0-1.2 9.1c2.2 6.2 8.7 2.3 8.7 2.3a3.3 3.3 0 0 1-3.7-2.6c-.6-2.9 7.1-3.9 7.2-8.6s3.3-5.9 6.8-5.9 1.8 5.5 6.3 8.6a11.3 11.3 0 0 0 9.1 1.6s-1.9 4.6 1.1 7.1 5.8.2 5.8 3a11.5 11.5 0 0 0 3-10.7 13 13 0 0 0-7.7-9.6 8.7 8.7 0 0 0 3-8.7 6.8 6.8 0 0 0-6.8-5.2 6.9 6.9 0 0 0-7-6.3A7.5 7.5 0 0 0 27.5 7z"/></svg>