<?xml version="1.0" encoding="utf-8"?>
<!-- Generator: Adobe Illustrator 24.0.0, SVG Export Plug-In . SVG Version: 6.00 Build 0)  -->
<svg version="1.1" id="Layer_1" xmlns="http://www.w3.org/2000/svg" xmlns:xlink="http://www.w3.org/1999/xlink" x="0px" y="0px"
	 viewBox="0 0 15.2 15.2" style="enable-background:new 0 0 15.2 15.2;" xml:space="preserve">
<style type="text/css">
	.st0{fill:#EDAA58;stroke:#030504;stroke-width:0.576;stroke-linecap:round;stroke-linejoin:round;}
	.st1{fill:#FFFFFF;}
	.st2{fill:#FFFFFF;stroke:#030504;stroke-width:0.576;stroke-linecap:round;stroke-linejoin:round;}
	.st3{fill:none;stroke:#030504;stroke-width:0.576;stroke-miterlimit:10;}
	.st4{fill:none;stroke:#030504;stroke-width:0.576;stroke-linecap:round;stroke-miterlimit:10;}
</style>
<title>Artboard 1</title>
<g id="Group_32">
	<path id="Path_1" class="st0" d="M4.1,4.5v2.2l-2.4,5.6c0,0-1.3,2.6,0.9,2.6H11c0,0,2.2,0,1-2.6c-1-2.1-2.5-5.6-2.5-5.6V4.5
		L4.1,4.5z"/>
	<circle id="Ellipse_7" class="st1" cx="5.8" cy="10.7" r="0.5"/>
	<circle id="Ellipse_8" class="st1" cx="6.7" cy="12.7" r="0.3"/>
	<circle id="Ellipse_9" class="st1" cx="6.8" cy="8.9" r="0.7"/>
	<path id="Path_2" class="st2" d="M6.4,1.5C5.9,0.8,4.8,0.7,4.1,1.2C4.1,1.3,4,1.4,3.9,1.5C2.6,2.8,2.4,5.8,1,4.9c0,0,0.5,1.3,2,0.7
		C2.6,6.1,2.5,6.9,2.8,7.5C3.3,8.8,4.6,8,4.6,8C4.2,8,3.9,7.8,3.8,7.4C3.7,6.8,5.3,6.6,5.3,5.7c0-1,0.7-1.2,1.4-1.2S7.1,5.6,8,6.2
		c0.5,0.4,1.2,0.5,1.9,0.3c0,0-0.4,0.9,0.2,1.5c0.6,0.5,1.2,0,1.2,0.6c0.6-0.6,0.8-1.4,0.6-2.2c-0.2-0.9-0.8-1.6-1.6-2
		C10.9,4,11.1,3.3,11,2.7C10.8,2,10.2,1.6,9.5,1.6C9.5,0.8,8.9,0.3,8.1,0.3C7.3,0.2,6.6,0.7,6.4,1.5z"/>
	<g id="Group_2">
		<path id="Path_3" class="st3" d="M9.5,5h2.6c0,0,1.6,0,1.6,1.1v2.7c0,0,0,1.2-2.9,0.8"/>
		<path id="Path_4" class="st4" d="M9.1,4.1c0,0,0.7,0.3,0.6,1.6"/>
	</g>
</g>
</svg>
